<svg version="1.1" id="navItem5" class="svg" xmlns="http://www.w3.org/2000/svg" xmlns:xlink="http://www.w3.org/1999/xlink" x="0px" y="0px"
	 width="79.446px" height="81.027px" viewBox="0 0 79.446 81.027" enable-background="new 0 0 79.446 81.027" xml:space="preserve">
<path id="_x35_" fill-rule="evenodd" clip-rule="evenodd" d="M3.997,12.377h71.457h3.993v3.993v48.284v3.996h-3.993H3.997H0v-3.996
	V16.37v-3.993H3.997L3.997,12.377z M7.993,55.746l16.389-17.431L7.993,24.068V55.746L7.993,55.746z M54.05,38.727l17.407,17.419
	V23.944L54.05,38.727L54.05,38.727z M66.957,60.656l-17.783-17.79L41.359,49.5l-2.083,1.77l-2.06-1.797l-8.017-6.971l-17.07,18.154
	H66.957L66.957,60.656z M13.446,20.366l25.876,22.496l26.497-22.496H13.446z"/>
</svg>
