<svg version="1.1" id="navItem1" class="svg"  x="0px" y="0px" width="79.446px" height="81.027px" viewBox="0 0 79.446 81.027" enable-background="new 0 0 79.446 81.027">
<path id="_x31_" fill-rule="evenodd" clip-rule="evenodd" d="M67.538,9.668C51.875-3.704,26.725-3.134,11.363,10.939
	C-3.999,25.015-3.755,47.263,11.909,60.635c9.453,8.071,18.907,12.321,28.359,20.393c9.272-8.494,18.544-13.167,27.815-21.662
	C83.444,45.291,83.201,23.041,67.538,9.668z M39.625,56.19c-11.951,0-21.638-8.959-21.638-20.014
	c0-11.052,9.687-20.012,21.638-20.012c11.949,0,21.637,8.96,21.637,20.012C61.262,47.231,51.574,56.19,39.625,56.19z"/>
</svg>
