<svg version="1.1" id="navItem3" class="svg" xmlns="http://www.w3.org/2000/svg" xmlns:xlink="http://www.w3.org/1999/xlink" x="0px" y="0px"
	 width="79.446px" height="81.027px" viewBox="0 0 79.446 81.027" enable-background="new 0 0 79.446 81.027" xml:space="preserve">
<path id="_x33_" fill-rule="evenodd" clip-rule="evenodd" d="M17.434,53.022l10.744,0.605l3.282,12.555l0.012-0.002
	c0.507,1.972,1.547,3.314,3.046,4.113c1.362,0.728,2.943,0.885,4.7,0.563l0.249-0.054l15.301-4.205v-0.01
	c1.774-0.475,3.022-1.536,3.787-2.883c0.822-1.456,1.019-3.195,0.662-4.819l-0.019-0.123l-0.896-3.435l11.772,0.663l1.186,4.536
	l8.382-2.304L66.64,8.497l-8.382,2.301l1.262,4.819L32.175,33.919L15.377,45.162l-0.469-1.788L0,44.528l4.442,16.989l13.384-6.987
	L17.434,53.022L17.434,53.022z M60.046,27.277L35.713,42.382l-2.338-3.959L57.71,23.317L60.046,27.277L60.046,27.277z
	 M34.625,53.994l2.838,0.159l14.388,0.811l1.42,5.427l0,0c0.01,0.076,0.007,0.135-0.01,0.164c-0.014,0.029,0-0.037-0.052-0.024
	l-0.029-0.005l-15.186,4.172c-0.364,0.063-0.593,0.079-0.66,0.042c-0.067-0.034,0.084-0.017,0.043-0.169l0.009-0.015L34.625,53.994z
	"/>
</svg>
