<svg version="1.1" id="navItem2" class="svg" xmlns="http://www.w3.org/2000/svg" xmlns:xlink="http://www.w3.org/1999/xlink" x="0px" y="0px"
	 width="79.446px" height="81.027px" viewBox="0 0 79.446 81.027" enable-background="new 0 0 79.446 81.027" xml:space="preserve">

<path id="_x32_" d="M-0.01,54.37c7.724,5.054,14.346,9.903,20.967,20.41c19.497-4.85,38.993-9.496,58.489-14.146
	C65.651-3.81,13.601-19.369-0.01,54.37z M69.146,60.837c-11.955,3.031-23.726,5.859-35.497,8.892
	C32.36,21.636,57.007,18.818,69.146,60.837z M20.406,73.365c0.735-21.218,4.599-58.382,13.61-66.465
	c0.184,0.202,0.552,0.202,0.919,0.403C29.05,13.367,23.532,39.217,21.693,72.76C21.141,72.962,20.773,73.164,20.406,73.365z"/>
</svg>
