<svg version="1.1" id="outthere-LOGO" xmlns="http://www.w3.org/2000/svg" xmlns:xlink="http://www.w3.org/1999/xlink" x="0px" y="0px" width="100%" height="100%" viewBox="0 0 458.418 110.903" enable-background="new 0 0 458.418 110.903"
	 xml:space="preserve">
<path fill-rule="evenodd" clip-rule="evenodd" class="c1" d="M0,44.4c0.51-0.889,0.409-1.907,0.587-2.864
	c2.037-10.955,7.651-19.793,16.05-26.929c9.088-7.722,19.68-12.055,31.471-13.451c14.306-1.694,27.789,0.802,40.097,8.49
	c9.146,5.713,16.094,13.417,19.644,23.723c4.976,14.443,2.375,27.773-6.607,39.964c-4.153,5.638-9.619,9.894-15.132,14.078
	c-6.973,5.293-14.403,9.942-21.409,15.188c-2.785,2.086-5.51,4.245-8.118,6.548c-0.426,0.376-0.71,0.608-1.285,0.134
	c-7.722-6.39-16.364-11.433-24.736-16.873c-6.372-4.139-12.705-8.353-18.044-13.823c-6.941-7.11-11.206-15.558-12.302-25.51
	C0.195,52.882,0.217,52.67,0,52.56C0,49.84,0,47.12,0,44.4z M54.884,79.922c0.959,0,1.921,0.036,2.878-0.01
	c0.953-0.045,1.912-0.115,2.853-0.271c8.602-1.417,16.012-5.067,21.687-11.824c5.163-6.146,7.562-13.223,6.748-21.273
	c-0.837-8.276-4.786-14.913-11.18-20.032c-8.19-6.558-17.689-8.826-27.995-7.501c-8.162,1.05-15.271,4.458-20.975,10.513
	c-6.289,6.675-8.984,14.562-7.803,23.698c0.987,7.628,4.778,13.735,10.58,18.577C38.363,77.378,46.177,79.996,54.884,79.922z"/>
<path fill-rule="evenodd" clip-rule="evenodd" class="c2" d="M281.76,0c0.24,0.344,0.244,0.732,0.244,1.134
	c-0.019,8.079-0.017,16.157-0.054,24.235c-0.008,1.662-0.157,3.323-0.253,5.21c0.682-0.424,1.179-0.73,1.672-1.041
	c4.898-3.077,10.022-5.683,15.738-6.814c6.079-1.204,11.644-0.183,16.028,4.583c2.493,2.709,3.694,6.043,4.047,9.669
	c0.167,1.707,0.208,3.431,0.21,5.147c0.016,13.358-0.006,26.716,0.035,40.075c0.004,1.081-0.292,1.32-1.332,1.308
	c-4.719-0.059-9.438-0.058-14.157,0c-1.033,0.013-1.331-0.21-1.327-1.298c0.044-12.798,0.026-25.597,0.029-38.394
	c0.001-1.803-0.1-3.596-0.494-5.36c-0.899-4.017-3.447-5.904-7.563-5.515c-4.496,0.425-8.416,2.351-12.131,4.791
	c-0.575,0.377-0.449,0.877-0.449,1.372c-0.006,9.358-0.005,18.717-0.005,28.076c0,5.079-0.017,10.158,0.018,15.237
	c0.006,0.812-0.174,1.094-1.043,1.086c-4.879-0.043-9.759-0.035-14.638-0.006c-0.777,0.005-1.119-0.122-1.118-1.024
	c0.026-19.438-0.015-38.875,0.049-58.312c0.014-4.077,0.031-8.155,0.056-12.232c0.004-0.693,0.195-1.177,0.715-1.662
	c3.394-3.159,6.752-6.355,10.119-9.542c0.223-0.211,0.547-0.35,0.563-0.724C278.399,0,280.079,0,281.76,0z"/>
<path fill-rule="evenodd" clip-rule="evenodd" class="c3" d="M171.802,53.57c0,9.557-0.015,19.113,0.022,28.67
	c0.004,0.989-0.24,1.279-1.251,1.267c-4.357-0.058-8.717-0.047-13.075-0.005c-0.809,0.008-1.112-0.263-1.256-1.025
	c-0.32-1.686-0.768-3.347-1.078-5.033c-0.169-0.923-0.411-0.973-1.19-0.48c-4.569,2.887-9.302,5.454-14.554,6.896
	c-5.135,1.41-10.224,1.52-14.985-1.221c-5.444-3.134-7.732-8.228-7.788-14.236c-0.135-14.633-0.038-29.269-0.061-43.904
	c-0.001-0.79,0.224-1.001,1.002-0.996c4.998,0.033,9.997,0.046,14.994-0.009c0.979-0.011,1.077,0.359,1.075,1.18
	c-0.022,13.116-0.013,26.231-0.019,39.347c-0.001,1.767,0.135,3.513,0.639,5.213c1.096,3.7,3.756,5.407,7.942,4.86
	c4.393-0.572,8.331-2.392,12.014-4.809c0.597-0.392,0.53-0.915,0.53-1.469c0-8.917,0-17.833,0-26.75
	c0-5.478,0.021-10.956-0.021-16.434c-0.007-0.881,0.196-1.145,1.113-1.135c4.918,0.049,9.837,0.057,14.754-0.003
	c1.052-0.013,1.217,0.339,1.213,1.288C171.789,34.377,171.802,43.974,171.802,53.57z"/>
<path fill-rule="evenodd" clip-rule="evenodd" class="c2" d="M323.269,54.93c0.104-6.628,0.734-13.155,3.608-19.265
	c3.688-7.841,10.006-11.979,18.457-13.101c4.05-0.538,8.061-0.411,11.949,0.972c5.542,1.971,9.091,6.033,11.572,11.182
	c1.892,3.923,2.857,8.115,3.59,12.375c0.108,0.632-0.037,1.146-0.468,1.647c-1.217,1.418-2.787,2.253-4.521,2.807
	c-3.558,1.137-7.234,1.639-10.941,1.957c-5.492,0.47-10.983,0.945-16.474,1.424c-0.403,0.035-0.89-0.093-0.895,0.63
	c-0.028,4.153,0.315,8.219,2.395,11.954c2.691,4.833,7,6.392,12.223,6.004c6.017-0.447,11.618-2.404,17.036-4.93
	c0.866-0.404,1.193-0.509,1.497,0.593c0.924,3.351,0.963,3.313-1.77,5.456c-5.433,4.262-11.314,7.659-18.105,9.21
	c-5.838,1.333-11.612,1.147-17.073-1.553c-5.147-2.546-8.049-6.998-9.898-12.257C323.73,65.142,323.336,60.061,323.269,54.93z
	 M341.01,47.442c4.628-0.227,9.256-0.477,13.886-0.663c0.992-0.04,1.358-0.303,1.082-1.333c-0.194-0.726-0.196-1.502-0.314-2.252
	c-0.569-3.613-1.396-7.127-3.636-10.151c-1.474-1.99-3.422-2.653-5.794-2.242c-2.398,0.416-4.227,1.475-4.991,4.021
	c-1.087,3.625-1.619,7.325-1.838,11.081C339.309,47.554,339.353,47.557,341.01,47.442z"/>
<path fill-rule="evenodd" clip-rule="evenodd" class="c2" d="M408.609,54.927c0.026-6.517,0.686-12.917,3.424-18.946
	c3.648-8.031,10.021-12.279,18.626-13.418c3.885-0.514,7.731-0.403,11.492,0.833c5.827,1.916,9.514,6.096,12.067,11.454
	c1.785,3.744,2.731,7.739,3.454,11.799c0.204,1.146-0.163,1.988-1.016,2.748c-2.228,1.987-5.016,2.566-7.791,3.137
	c-5.22,1.073-10.552,1.177-15.835,1.703c-2.584,0.257-5.172,0.468-7.76,0.688c-0.421,0.036-0.747,0.041-0.762,0.637
	c-0.098,3.996,0.188,7.916,2.12,11.533c2.549,4.771,6.725,6.934,12.337,6.453c6.135-0.526,11.855-2.469,17.373-5.08
	c0.778-0.368,0.983-0.264,1.191,0.531c1.154,4.399,1.725,2.881-1.796,5.69c-5.361,4.281-11.247,7.626-18,9.154
	c-6.004,1.358-11.932,1.155-17.502-1.775c-4.831-2.541-7.6-6.799-9.397-11.804C409.053,65.3,408.612,60.147,408.609,54.927z
	 M426.458,47.5c-0.001-0.022-0.001-0.045-0.002-0.067c4.585-0.224,9.169-0.477,13.757-0.65c1.05-0.04,1.279-0.412,1.092-1.373
	c-0.283-1.449-0.412-2.928-0.713-4.372c-0.658-3.15-1.609-6.184-3.838-8.646c-0.805-0.889-1.766-1.572-2.97-1.637
	c-3.205-0.172-6.492,0.535-7.547,4.99c-0.841,3.552-1.367,7.127-1.581,10.762c-0.043,0.736,0.103,1.167,0.965,1.001
	C425.891,47.456,426.179,47.5,426.458,47.5z"/>
<path fill-rule="evenodd" clip-rule="evenodd" class="c1" d="M181.44,53.543c0-6.879-0.019-13.758,0.024-20.636
	c0.005-0.846-0.271-1.194-1.038-1.42c-1.529-0.451-3.022-1.024-4.552-1.474c-0.703-0.207-0.823-0.586-0.91-1.269
	c-0.244-1.918,0.469-3.084,2.107-4.177c4.886-3.258,9.658-6.688,14.407-10.145c1.333-0.97,2.643-1.439,4.295-1.354
	c2.381,0.122,2.393,0.031,2.469,2.421c0.075,2.356,0.176,4.712,0.175,7.068c0,0.816,0.267,0.981,1.02,0.978
	c5.319-0.029,10.638,0.011,15.957-0.039c0.985-0.009,1.227,0.279,1.082,1.205c-0.217,1.379-0.418,2.771-0.477,4.164
	c-0.046,1.095-0.502,1.514-1.56,1.605c-3.302,0.286-6.599,0.645-9.898,0.964c-1.75,0.169-3.5,0.348-5.253,0.453
	c-0.648,0.039-0.801,0.286-0.783,0.878c0.036,1.199,0.01,2.399,0.01,3.599c0,9.798,0.002,19.597-0.002,29.395
	c0,1.454,0.256,2.858,0.738,4.228c0.638,1.813,1.937,2.802,3.821,2.983c3.489,0.336,6.932-0.224,10.381-0.62
	c0.872-0.101,1.75-0.201,2.605-0.387c0.8-0.175,0.964,0.145,0.911,0.855c-0.051,0.677-0.096,1.372,0.006,2.036
	c0.232,1.515-0.385,2.339-1.731,3.077c-5.684,3.12-11.61,5.501-18.063,6.414c-2.748,0.39-5.507,0.394-8.228-0.196
	c-4.06-0.881-6.735-3.892-7.28-8.063c-0.166-1.271-0.243-2.543-0.24-3.825C181.446,66.021,181.44,59.782,181.44,53.543z"/>
<path fill-rule="evenodd" clip-rule="evenodd" class="c2" d="M226.118,53.125c0-6.72-0.017-13.439,0.021-20.158
	c0.004-0.86-0.227-1.276-1.078-1.512c-1.497-0.415-2.947-0.995-4.438-1.432c-0.707-0.207-0.838-0.587-0.918-1.276
	c-0.22-1.893,0.413-3.091,2.075-4.193c4.795-3.177,9.479-6.528,14.112-9.939c1.538-1.132,3.054-1.678,4.954-1.55
	c2.008,0.136,2.017,0.03,2.072,1.983c0.068,2.436,0.182,4.872,0.174,7.308c-0.003,0.925,0.222,1.196,1.178,1.187
	c5.279-0.05,10.559,0.001,15.838-0.047c0.976-0.008,1.203,0.254,1.054,1.196c-0.251,1.576-0.43,3.169-0.529,4.762
	c-0.062,0.989-0.787,0.906-1.356,0.968c-3.335,0.364-6.676,0.683-10.015,1.008c-1.631,0.159-3.261,0.375-4.895,0.418
	c-0.97,0.026-1.163,0.38-1.161,1.272c0.028,10.679,0.016,21.358,0.023,32.037c0,0.758,0.059,1.517,0.116,2.272
	c0.067,0.882,0.321,1.721,0.612,2.553c0.635,1.818,1.934,2.802,3.818,2.983c3.449,0.333,6.854-0.224,10.266-0.597
	c0.317-0.035,0.632-0.097,0.948-0.135c0.83-0.1,1.984-0.568,2.415-0.198c0.633,0.544,0.082,1.735,0.247,2.624
	c0.323,1.733-0.485,2.605-1.964,3.41c-5.626,3.062-11.491,5.385-17.863,6.282c-2.708,0.382-5.428,0.374-8.111-0.188
	c-4.185-0.877-6.964-4.085-7.386-8.496c-0.129-1.351-0.196-2.711-0.2-4.067C226.106,65.443,226.118,59.284,226.118,53.125z"/>
<path fill-rule="evenodd" clip-rule="evenodd" class="c2" d="M393.41,32.948c1.37-2.147,2.675-4.054,4.067-5.903
	c1.845-2.45,4.171-3.971,7.284-4.323c3.929-0.444,7.857-0.389,12.06-0.397c-1.453,1.74-2.744,3.289-4.038,4.834
	c-2.204,2.635-4.459,5.231-6.593,7.923c-0.855,1.079-1.994,1.208-2.948,0.817c-1.319-0.54-2.517-0.324-3.719-0.009
	c-2.662,0.697-4.965,2.774-5.015,6.283c-0.109,7.709-0.299,15.417-0.471,23.125c-0.128,5.71-0.293,11.418-0.405,17.128
	c-0.016,0.796-0.201,1.085-1.067,1.077c-4.757-0.046-9.515-0.046-14.271-0.001c-0.886,0.009-1.031-0.305-1.03-1.098
	c0.021-19.27,0.023-38.539-0.007-57.808c-0.002-0.933,0.274-1.106,1.138-1.097c4.118,0.045,8.236,0.063,12.353-0.01
	c1.01-0.018,1.282,0.347,1.393,1.233c0.312,2.496,0.686,4.983,1.041,7.473C393.208,32.386,393.292,32.568,393.41,32.948z"/>
<g>
	<path fill-rule="evenodd" clip-rule="evenodd" class="c4" d="M349.704,104.611c1.596-2.801,3.11-5.337,4.493-7.941
		c0.697-1.314,1.802-0.631,2.732-0.805c0.797-0.148,0.882,0.537,1.085,1.021c1.05,2.49,2.078,4.99,3.209,7.715
		c1.708-2.644,3.305-5.098,4.884-7.563c0.703-1.098,1.654-1.497,2.896-1.169c0.693,0.183,0.251,0.518,0.084,0.763
		c-1.281,1.882-2.581,3.75-3.868,5.628c-0.768,1.119-1.563,2.223-2.271,3.379c-0.801,1.311-2.03,0.421-3.036,0.658
		c-0.73,0.173-0.726-0.586-0.908-1.022c-0.992-2.387-1.964-4.782-2.966-7.232c-0.526,0.226-0.646,0.672-0.85,1.027
		c-1.227,2.148-2.466,4.291-3.636,6.471c-0.337,0.627-0.75,0.704-1.396,0.804c-1.654,0.254-2.443-0.464-3.14-1.899
		c-1.27-2.617-2.762-5.128-4.197-7.662c-0.386-0.682-0.393-0.871,0.504-0.956c1.353-0.128,2.057,0.357,2.631,1.59
		C347.061,99.789,348.366,102.071,349.704,104.611z"/>
	<path fill-rule="evenodd" clip-rule="evenodd" class="c4" d="M154.562,104.536c0,1.993-0.034,3.706,0.016,5.417
		c0.021,0.718-0.156,0.955-0.918,0.95c-2.063-0.014-2.005,0.032-1.825-2.002c0.342-3.854,0.609-7.716,0.644-11.586
		c0.007-0.802,0.217-1.085,1.027-1.181c3.292-0.389,6.58-0.781,9.879-0.138c2.724,0.531,4.419,2.227,4.577,4.497
		c0.172,2.472-1.458,4.712-4.046,5.563C160.881,107.055,157.787,106.612,154.562,104.536z M155.04,100.472
		c-0.086,2.255,0.197,3.1,1.517,3.841c2.17,1.219,4.425,1.302,6.604,0.072c1.527-0.863,2.171-2.306,1.963-4.049
		c-0.192-1.612-1.236-2.506-2.724-2.98c-1.4-0.445-2.833-0.485-4.255-0.27C154.761,97.602,155.322,96.843,155.04,100.472z"/>
	<path fill-rule="evenodd" clip-rule="evenodd" class="c4" d="M397.676,104.507c-2.86,2.311-5.921,2.434-9.096,1.555
		c-1.73-0.479-3.163-1.438-3.562-3.346c-0.415-1.99,0.347-3.613,1.848-4.897c1.652-1.414,3.675-1.848,5.767-2.058
		c1.553-0.156,3.11-0.124,4.658,0.02c0.708,0.065,0.948-0.162,0.901-0.823c-0.014-0.199,0.002-0.399,0.003-0.6
		c0.01-1.919,0.014-1.875,1.93-2.037c0.717-0.061,1.027-0.01,0.957,0.817c-0.354,4.176-0.604,8.358-0.716,12.548
		c-0.012,0.444-0.127,0.679-0.61,0.639c-0.277-0.023-0.563-0.036-0.838,0.004c-0.931,0.132-1.473-0.1-1.211-1.185
		C397.741,105.002,397.695,104.841,397.676,104.507z M397.919,99.115c0.104-2.101,0.104-2.104-2.073-2.153
		c-0.638-0.014-1.28-0.039-1.915,0.015c-1.688,0.145-3.335,0.473-4.677,1.603c-1.058,0.891-1.709,2.03-1.548,3.454
		c0.16,1.413,1.063,2.279,2.357,2.755c4.271,1.572,7.69-0.692,7.854-5.193C397.924,99.435,397.919,99.275,397.919,99.115z"/>
	<path fill-rule="evenodd" clip-rule="evenodd" class="c4" d="M125.376,106.321c-1.997,0-3.995-0.021-5.992,0.012
		c-0.673,0.011-0.981-0.051-0.894-0.895c0.418-4.05,0.723-8.11,0.79-12.184c0.013-0.798,0.277-1.042,1.043-1.004
		c3.991,0.202,7.982,0.008,11.975,0.007c0.542,0,1.007-0.06,0.953,0.785c-0.05,0.775-0.442,0.771-1.012,0.764
		c-2.956-0.036-5.912-0.02-8.867-0.084c-0.881-0.02-1.224,0.252-1.193,1.148c0.031,0.875-0.035,1.758-0.127,2.63
		c-0.075,0.71,0.114,0.966,0.881,0.952c2.596-0.047,5.194-0.028,7.792-0.008c0.442,0.004,1.072-0.281,1.064,0.655
		c-0.008,0.913-0.578,0.778-1.127,0.778c-2.597,0.001-5.195,0.025-7.792-0.015c-0.753-0.012-1.082,0.176-1.071,0.986
		c0.014,1.035-0.039,2.079-0.173,3.104c-0.114,0.873,0.278,0.983,1,0.971c2.916-0.048,5.833-0.07,8.749-0.063
		c0.407,0.002,1.079-0.389,1.122,0.566c0.042,0.914-0.472,0.907-1.126,0.899C129.372,106.308,127.374,106.321,125.376,106.321z"/>
	<path fill-rule="evenodd" clip-rule="evenodd" class="c5" d="M185.96,106.555c-1.678-0.014-3.223-0.185-4.695-0.74
		c-2.229-0.841-3.441-2.4-3.466-4.393c-0.027-2.186,1.105-3.904,3.297-4.791c3.151-1.274,6.386-1.322,9.597-0.286
		c1.895,0.611,3.295,1.827,3.49,3.974c0.207,2.282-0.872,3.923-2.783,5.029C189.692,106.337,187.774,106.498,185.96,106.555z
		 M185.772,105.147c1.095,0.067,2.159-0.078,3.165-0.519c1.658-0.726,2.579-2.313,2.436-4.154c-0.125-1.61-1.042-2.677-2.823-3.149
		c-1.948-0.518-3.895-0.47-5.736,0.406c-1.571,0.746-2.238,2.093-2.192,3.807c0.045,1.653,0.986,2.63,2.448,3.206
		C183.94,105.086,184.844,105.203,185.772,105.147z"/>
	<path fill-rule="evenodd" clip-rule="evenodd" class="c4" d="M237.372,97.453c3.035-2.24,6.419-2.097,9.832-1.313
		c1.807,0.415,2.449,1.381,2.384,3.211c-0.071,1.994-0.278,3.983-0.364,5.977c-0.035,0.811-0.283,1.051-1.132,0.989
		c-1.697-0.124-1.706-0.06-1.594-1.745c0.103-1.554,0.258-3.104,0.309-4.659c0.047-1.418-0.441-2.029-1.799-2.435
		c-1.406-0.421-2.849-0.444-4.271-0.155c-2.516,0.512-3.62,1.781-3.848,4.344c-0.113,1.271-0.2,2.548-0.233,3.823
		c-0.015,0.579-0.107,0.845-0.783,0.847c-2.174,0.005-2.133,0.039-1.927-2.212c0.223-2.425,0.409-4.855,0.503-7.287
		c0.031-0.81,0.266-1.085,1.025-0.979c0.078,0.012,0.159,0.002,0.239,0.002c1.579-0.007,1.579-0.007,1.597,1.526
		c-0.039,0.047-0.083,0.092-0.114,0.144c-0.006,0.009,0.04,0.05,0.063,0.076C237.297,97.556,237.334,97.504,237.372,97.453z"/>
	<path fill-rule="evenodd" clip-rule="evenodd" class="c6" d="M444.964,97.439c2.899-2.11,6.128-2.045,9.396-1.425
		c2.229,0.423,2.945,1.434,2.84,3.694c-0.088,1.875-0.262,3.746-0.324,5.621c-0.025,0.762-0.215,1.031-1.037,0.988
		c-1.873-0.099-1.881-0.049-1.716-1.985c0.115-1.353,0.25-2.703,0.369-4.056c0.139-1.565-0.436-2.411-1.957-2.825
		c-1.618-0.438-3.25-0.421-4.854,0.036c-1.998,0.569-2.963,1.85-3.176,4.156c-0.117,1.272-0.228,2.549-0.242,3.825
		c-0.008,0.682-0.194,0.879-0.881,0.86c-2.022-0.054-1.995-0.021-1.824-2.068c0.205-2.466,0.555-4.926,0.5-7.405
		c-0.018-0.824,0.274-1.084,1.026-0.996c0.039,0.005,0.079,0.001,0.119,0.001C444.878,95.836,444.878,95.836,444.964,97.439z"/>
	<path fill-rule="evenodd" clip-rule="evenodd" class="c5" d="M261.604,105.103c-0.028,0.916-0.396,1.248-1.18,1.321
		c-1.839,0.172-3.668,0.204-5.487-0.136c-0.464-0.087-0.928-0.259-1.348-0.477c-0.823-0.428-1.387-1.066-1.39-2.067
		c-0.001-0.958,0.553-1.55,1.32-1.983c1.562-0.884,3.31-1.125,5.035-1.443c1.255-0.231,2.514-0.441,3.76-0.716
		c0.754-0.166,1.622-0.477,1.585-1.364c-0.04-0.967-0.99-1.143-1.783-1.279c-2.244-0.39-4.448-0.041-6.652,0.373
		c-0.34,0.063-0.907,0.524-1.031-0.2c-0.096-0.556,0.216-0.964,0.868-1.05c2.934-0.384,5.869-0.694,8.808-0.097
		c2.24,0.455,2.728,1.132,2.572,3.362c-0.137,1.951-0.27,3.902-0.381,5.854c-0.043,0.755-0.162,1.342-1.155,1.107
		c-0.302-0.071-0.639-0.022-0.955,0.013c-0.687,0.075-0.87-0.127-0.756-0.866c0.218-1.417,0.281-2.857,0.405-4.289
		c0.04-0.46-0.01-0.817-0.634-0.582c-1.73,0.652-3.593,0.715-5.365,1.183c-0.538,0.142-1.088,0.278-1.594,0.504
		c-0.691,0.309-1.468,0.649-1.35,1.604c0.104,0.844,0.816,1.119,1.534,1.304c1.34,0.346,2.693,0.238,4.045,0.085
		C260.827,105.224,261.174,105.164,261.604,105.103z"/>
	<path fill-rule="evenodd" clip-rule="evenodd" class="c5" d="M322.023,100.321c-2.005,0.855-4.063,0.941-6.029,1.432
		c-0.698,0.174-1.389,0.356-2.023,0.71c-0.543,0.303-1.043,0.663-0.989,1.364c0.053,0.693,0.599,1.035,1.166,1.235
		c1.434,0.508,2.915,0.354,4.388,0.21c0.388-0.038,0.764-0.255,1.164-0.067c-0.002,0.836-0.424,1.167-1.246,1.234
		c-1.8,0.148-3.592,0.189-5.369-0.152c-0.538-0.104-1.084-0.308-1.557-0.585c-1.652-0.969-1.674-2.854-0.04-3.859
		c1.564-0.964,3.364-1.194,5.128-1.52c1.215-0.224,2.436-0.422,3.641-0.689c0.82-0.183,1.837-0.449,1.732-1.469
		c-0.1-0.968-1.13-1.105-1.97-1.235c-2.167-0.335-4.292-0.002-6.416,0.395c-0.355,0.066-0.913,0.504-1.059-0.139
		c-0.107-0.477,0.097-0.998,0.801-1.093c2.974-0.398,5.948-0.705,8.929-0.1c2.194,0.445,2.689,1.176,2.508,3.418
		c-0.161,1.989-0.327,3.98-0.374,5.974c-0.02,0.854-0.331,0.963-1.063,0.933c-1.937-0.08-1.916-0.047-1.684-1.984
		C321.816,103.035,321.898,101.729,322.023,100.321z"/>
	<path fill-rule="evenodd" clip-rule="evenodd" class="c6" d="M293.39,104.426c-2.622,2.715-8.826,2.399-10.88,1.249
		c-1.099-0.616-1.588-1.524-1.498-2.764c0.148-2.03,0.353-4.058,0.426-6.09c0.029-0.821,0.322-1.058,1.062-0.964
		c0.196,0.024,0.401,0.021,0.599,0c0.861-0.091,1.306,0.042,1.121,1.144c-0.284,1.688-0.379,3.411-0.496,5.123
		c-0.104,1.51,0.417,2.231,1.86,2.639c1.611,0.454,3.238,0.441,4.848-0.016c1.892-0.537,2.889-1.726,3.063-3.682
		c0.124-1.392,0.237-2.789,0.241-4.184c0.002-0.777,0.218-1.112,1.008-1.026c0.316,0.035,0.645,0.043,0.958-0.001
		c0.873-0.123,0.968,0.3,0.878,1.04c-0.343,2.814-0.6,5.64-0.636,8.475c-0.01,0.814-0.253,1.085-1.021,0.928
		c-0.039-0.008-0.081-0.016-0.119-0.009C293.582,106.508,292.88,106.182,293.39,104.426z"/>
	<path fill-rule="evenodd" clip-rule="evenodd" class="c6" d="M434.525,104.769c-2.967,2.125-6.215,2.117-9.518,1.328
		c-2.141-0.512-2.74-1.435-2.634-3.616c0.096-1.955,0.264-3.905,0.354-5.86c0.026-0.566,0.218-0.803,0.781-0.763
		c0.358,0.025,0.722,0.03,1.079-0.002c0.749-0.068,1.079,0.123,0.963,0.993c-0.233,1.74-0.391,3.494-0.497,5.247
		c-0.1,1.645,0.451,2.334,2.05,2.73c1.501,0.373,3.013,0.356,4.508-0.029c2.044-0.527,3.034-1.726,3.234-3.937
		c0.122-1.353,0.226-2.71,0.242-4.065c0.009-0.72,0.198-1.044,0.949-0.941c0.314,0.044,0.643,0.039,0.958,0.002
		c0.793-0.094,1.004,0.162,0.908,1c-0.312,2.736-0.583,5.48-0.629,8.24c-0.01,0.597,0.19,1.412-0.894,1.209
		c-0.753-0.141-2.119,0.592-1.788-1.194C434.611,105.014,434.555,104.903,434.525,104.769z"/>
	<path fill-rule="evenodd" clip-rule="evenodd" class="c5" d="M221.574,104.735c0.083,1.084-0.438,1.496-1.504,1.596
		c-2.595,0.242-5.177,0.402-7.736-0.237c-2.492-0.624-4.089-2.313-4.247-4.438c-0.166-2.225,1.139-4.249,3.499-5.182
		c2.85-1.125,5.78-1.113,8.675-0.194c1.494,0.475,2.518,1.498,2.791,3.141c0.145,0.876-0.009,1.321-1.069,1.303
		c-3.315-0.06-6.634,0.022-9.949-0.049c-1.047-0.022-1.23,0.399-1.093,1.26c0.262,1.638,1.392,2.458,2.835,2.917
		c2.324,0.737,4.659,0.379,6.985-0.036c0.234-0.041,0.469-0.086,0.704-0.122C221.498,104.688,221.537,104.72,221.574,104.735z
		 M215.669,99.805c1.117,0,2.235,0.027,3.351-0.014c0.437-0.016,1.062,0.285,1.279-0.259c0.239-0.601-0.131-1.167-0.561-1.609
		c-0.842-0.867-1.97-1.063-3.084-1.075c-1.991-0.022-3.929,0.232-5.193,2.074c-0.403,0.589-0.342,0.922,0.498,0.894
		C213.194,99.774,214.432,99.805,215.669,99.805z"/>
	<path fill-rule="evenodd" clip-rule="evenodd" class="c5" d="M135.758,96.222c1.928-0.46,3.568-0.65,4.683,1.193
		c0.483,0.8,1.25,1.893,1.965,1.952c0.659,0.056,1.437-1.074,2.132-1.714c2.178-2.002,2.342-2.068,4.867-1.626
		c-1.51,1.322-2.882,2.631-4.372,3.789c-0.876,0.682-0.837,1.106-0.075,1.817c1.544,1.441,3.016,2.961,4.685,4.614
		c-1.887,0.066-3.553,0.493-4.677-1.403c-0.538-0.907-1.468-1.573-2.158-2.401c-0.494-0.594-0.824-0.514-1.332-0.003
		c-0.957,0.964-2.056,1.791-2.967,2.792c-0.767,0.843-1.564,1.273-2.709,1.066c-0.46-0.083-0.947-0.014-1.675-0.014
		c1.504-1.321,2.868-2.506,4.217-3.708c0.683-0.608,1.721-1.168,1.874-1.899c0.104-0.498-1.022-1.288-1.65-1.894
		C137.653,97.904,136.695,97.073,135.758,96.222z"/>
	<path fill-rule="evenodd" clip-rule="evenodd" class="c6" d="M418.844,91.868c0.715,0.066,1.43,0.179,2.145,0.186
		c0.754,0.007,0.857,0.528,0.824,1.035c-0.05,0.759-0.63,0.263-0.912,0.235c-1.034-0.101-2.053-0.277-3.09,0.017
		c-0.624,0.177-1.076,0.505-1.298,1.12c-0.402,1.114-0.134,1.495,1.057,1.499c0.84,0.003,1.68-0.001,2.519,0.003
		c0.322,0.001,0.662-0.026,0.619,0.476c-0.035,0.413-0.034,0.812-0.625,0.802c-0.919-0.016-1.841,0.04-2.757-0.015
		c-0.719-0.043-0.957,0.183-0.981,0.928c-0.083,2.472-0.279,4.94-0.364,7.412c-0.022,0.672-0.271,0.769-0.854,0.764
		c-2.014-0.019-2.003,0.001-1.882-2.033c0.118-1.992,0.165-3.99,0.337-5.979c0.074-0.854-0.141-1.171-1.004-1.095
		c-0.319,0.027-0.849,0.242-0.831-0.483c0.015-0.617,0.26-0.866,0.87-0.781c0.84,0.118,1.261-0.069,1.299-1.104
		c0.071-1.93,0.951-2.634,3.248-2.89c0.552-0.061,1.117-0.009,1.677-0.009C418.841,91.926,418.843,91.897,418.844,91.868z"/>
	<path fill-rule="evenodd" clip-rule="evenodd" class="c4" d="M276.556,97.201c-2.147,0-2.143,0.001-2.263,2.103
		c-0.075,1.315-0.203,2.628-0.239,3.943c-0.035,1.331,0.426,1.812,1.75,1.884c0.594,0.032,1.193-0.063,1.791-0.068
		c0.291-0.003,0.774-0.42,0.824,0.202c0.031,0.387,0.017,0.959-0.56,1.053c-1.784,0.29-3.578,0.447-5.324-0.183
		c-0.983-0.355-1.416-1.128-1.335-2.166c0.15-1.909,0.286-3.821,0.489-5.727c0.089-0.839-0.153-1.152-1.014-1.06
		c-0.394,0.043-1.008,0.272-0.964-0.596c0.04-0.779,0.563-0.664,1.008-0.615c0.874,0.096,1.315-0.132,1.298-1.128
		c-0.015-0.851,0.869-1.291,2.155-1.145c0.838,0.096,0.399,0.79,0.354,1.122c-0.143,1.038,0.326,1.216,1.207,1.151
		c0.834-0.062,1.677-0.001,2.516-0.017c0.438-0.008,0.653,0.104,0.614,0.61c-0.033,0.44-0.158,0.659-0.631,0.64
		C277.676,97.183,277.115,97.2,276.556,97.201z"/>
	<path fill-rule="evenodd" clip-rule="evenodd" class="c6" d="M330.232,106.284c-1.69,0.018-1.632,0.021-1.519-1.503
		c0.286-3.821,0.543-7.646,0.743-11.473c0.043-0.811,0.171-1.13,1.075-1.029c1.935,0.215,1.88,0.162,1.719,2.217
		c-0.269,3.423-0.502,6.851-0.643,10.28C331.562,105.927,331.494,106.734,330.232,106.284z"/>
	<path fill-rule="evenodd" clip-rule="evenodd" class="c6" d="M381.78,94.409c-0.22,3.738-0.449,7.476-0.648,11.215
		c-0.025,0.483-0.117,0.685-0.661,0.711c-2.409,0.116-2.36,0.127-2.125-2.324c0.332-3.45,0.635-6.906,0.634-10.376
		c0-1.047,0.221-1.636,1.414-1.296c0.183,0.052,0.405,0.037,0.593-0.013c0.967-0.252,1.112,0.203,0.933,1.015
		c-0.076,0.347-0.062,0.713-0.088,1.071C381.814,94.411,381.797,94.41,381.78,94.409z"/>
	<path fill-rule="evenodd" clip-rule="evenodd" class="c6" d="M174.709,94.34c-0.333,3.616-0.583,7.395-0.696,11.18
		c-0.019,0.625-0.221,0.809-0.842,0.811c-2.198,0.007-2.203,0.029-1.997-2.11c0.353-3.651,0.635-7.308,0.682-10.976
		c0.011-0.802,0.249-1.109,1.031-0.962c0.078,0.016,0.156,0.036,0.235,0.042C174.806,92.455,174.806,92.455,174.709,94.34z"/>
	<path fill-rule="evenodd" clip-rule="evenodd" class="c6" d="M303.124,97.538c1.481-1.467,2.951-1.815,4.515-1.864
		c0.355-0.012,0.715,0.062,1.067,0.036c0.788-0.057,0.615,0.502,0.67,0.954c0.08,0.658-0.33,0.574-0.744,0.555
		c-0.835-0.04-1.67-0.102-2.497,0.125c-1.882,0.513-2.853,1.609-3.007,3.55c-0.113,1.43-0.199,2.867-0.188,4.301
		c0.007,0.837-0.107,1.203-1.094,1.127c-1.75-0.135-1.755-0.062-1.631-1.814c0.175-2.467,0.394-4.932,0.358-7.408
		c-0.011-0.731-0.035-1.436,1.014-1.229C302.328,96.015,303.769,95.192,303.124,97.538z"/>
	<path fill-rule="evenodd" clip-rule="evenodd" class="c6" d="M200.315,97.544c1.756-1.725,3.569-1.926,5.495-1.851
		c0.813,0.031,0.743,0.538,0.776,1.041c0.046,0.689-0.449,0.479-0.819,0.477c-0.598-0.002-1.2-0.048-1.792,0.012
		c-2.112,0.212-3.313,1.398-3.638,3.463c-0.25,1.587-0.222,3.182-0.2,4.774c0.009,0.68-0.194,0.883-0.881,0.869
		c-2.114-0.04-2.082-0.009-1.877-2.103c0.227-2.3,0.405-4.604,0.386-6.921c-0.006-0.685-0.327-1.602,0.999-1.46
		C199.665,95.941,200.866,95.528,200.315,97.544z"/>
	<path fill-rule="evenodd" clip-rule="evenodd" class="c6" d="M372.633,106.285c-1.701,0.005-1.718,0.003-1.55-1.526
		c0.288-2.612,0.454-5.233,0.503-7.859c0.016-0.845,0.304-1.153,1.118-1.044c0.273,0.037,0.56,0.031,0.835,0.001
		c0.826-0.093,1.064,0.155,0.974,1.06c-0.261,2.611-0.432,5.235-0.529,7.858C373.942,105.883,373.938,106.762,372.633,106.285z"/>
</g>
<path fill-rule="evenodd" clip-rule="evenodd" class="c5" d="M373.302,92.194c0.447,0.281,1.691-0.659,1.492,0.936
	c-0.057,0.459-0.228,0.629-0.668,0.613c-0.477-0.017-0.954-0.007-1.431-0.001c-0.521,0.006-0.999,0.1-1.02-0.734
	c-0.021-0.889,0.473-0.842,1.054-0.814C372.888,92.201,373.048,92.194,373.302,92.194z"/>
<path fill-rule="evenodd" clip-rule="evenodd" class="c2" d="M54.884,79.922c-8.707,0.074-16.521-2.544-23.207-8.123
	c-5.802-4.842-9.593-10.948-10.58-18.577c-1.182-9.136,1.514-17.023,7.803-23.698c5.704-6.055,12.813-9.463,20.975-10.513
	c10.306-1.325,19.805,0.943,27.995,7.501c6.394,5.119,10.343,11.755,11.18,20.032c0.814,8.05-1.584,15.126-6.748,21.273
	c-5.675,6.757-13.085,10.407-21.687,11.824c-0.941,0.155-1.9,0.226-2.853,0.271C56.805,79.958,55.843,79.922,54.884,79.922z"/>
</svg>
